# xmcd
#
# Track frame offsets:
#	150
#	17767
#	38842
#	60805
#	79777
#	100517
#	122310
#	143707
#	162552
#	185937
#	205940
#
# Disc length: 3063 seconds
#
# Revision: 1
# Processed by: cddbd v1.5.1PL0 Copyright (c) Steve Scherf et al.
# Submitted via: CDex 1.50Beta5
#
DISCID=880bf50b
DTITLE=松田聖子 - It’s Style ’95
DYEAR=1995
DGENRE=Pop
TTITLE0=It’s Style’95
TTITLE1=Don’t You Wanna Dance?
TTITLE2=輝いた季節へ旅立とう
TTITLE3=Let’s Talk Again
TTITLE4=あなたを、愛したこと
TTITLE5=素敵にOnce Again
TTITLE6=白いサンダルと麦わら帽子
TTITLE7=明るい未来にしようね、Positiveに!
TTITLE8=頬をつたう涙が夜空の星に変わる時
TTITLE9=You Are My Fire
TTITLE10=Why
EXTD=
EXTT0=
EXTT1=
EXTT2=
EXTT3=
EXTT4=
EXTT5=
EXTT6=
EXTT7=
EXTT8=
EXTT9=
EXTT10=
PLAYORDER=
